<svg id="visual" viewBox="0 0 900 900" width="900" height="900" xmlns="http://www.w3.org/2000/svg" xmlns:xlink="http://www.w3.org/1999/xlink" version="1.1"><path d="M0 633L21.5 634.5C43 636 86 639 128.8 630C171.7 621 214.3 600 257.2 582.5C300 565 343 551 385.8 555.8C428.7 560.7 471.3 584.3 514.2 605.2C557 626 600 644 642.8 643.2C685.7 642.3 728.3 622.7 771.2 618.3C814 614 857 625 878.5 630.5L900 636L900 901L878.5 901C857 901 814 901 771.2 901C728.3 901 685.7 901 642.8 901C600 901 557 901 514.2 901C471.3 901 428.7 901 385.8 901C343 901 300 901 257.2 901C214.3 901 171.7 901 128.8 901C86 901 43 901 21.5 901L0 901Z" fill="#ff5470"></path><path d="M0 614L21.5 627.5C43 641 86 668 128.8 669.3C171.7 670.7 214.3 646.3 257.2 635.7C300 625 343 628 385.8 634.2C428.7 640.3 471.3 649.7 514.2 653.5C557 657.3 600 655.7 642.8 656C685.7 656.3 728.3 658.7 771.2 652.2C814 645.7 857 630.3 878.5 622.7L900 615L900 901L878.5 901C857 901 814 901 771.2 901C728.3 901 685.7 901 642.8 901C600 901 557 901 514.2 901C471.3 901 428.7 901 385.8 901C343 901 300 901 257.2 901C214.3 901 171.7 901 128.8 901C86 901 43 901 21.5 901L0 901Z" fill="#b94181"></path><path d="M0 665L21.5 675.2C43 685.3 86 705.7 128.8 709C171.7 712.3 214.3 698.7 257.2 687.7C300 676.7 343 668.3 385.8 665.3C428.7 662.3 471.3 664.7 514.2 674.8C557 685 600 703 642.8 707.2C685.7 711.3 728.3 701.7 771.2 703.5C814 705.3 857 718.7 878.5 725.3L900 732L900 901L878.5 901C857 901 814 901 771.2 901C728.3 901 685.7 901 642.8 901C600 901 557 901 514.2 901C471.3 901 428.7 901 385.8 901C343 901 300 901 257.2 901C214.3 901 171.7 901 128.8 901C86 901 43 901 21.5 901L0 901Z" fill="#693a76"></path><path d="M0 743L21.5 743.8C43 744.7 86 746.3 128.8 752.5C171.7 758.7 214.3 769.3 257.2 773.5C300 777.7 343 775.3 385.8 767.8C428.7 760.3 471.3 747.7 514.2 743.3C557 739 600 743 642.8 754.8C685.7 766.7 728.3 786.3 771.2 790.3C814 794.3 857 782.7 878.5 776.8L900 771L900 901L878.5 901C857 901 814 901 771.2 901C728.3 901 685.7 901 642.8 901C600 901 557 901 514.2 901C471.3 901 428.7 901 385.8 901C343 901 300 901 257.2 901C214.3 901 171.7 901 128.8 901C86 901 43 901 21.5 901L0 901Z" fill="#242b51"></path><path d="M0 814L21.5 813.3C43 812.7 86 811.3 128.8 818.7C171.7 826 214.3 842 257.2 845C300 848 343 838 385.8 834.8C428.7 831.7 471.3 835.3 514.2 836C557 836.7 600 834.3 642.8 827.8C685.7 821.3 728.3 810.7 771.2 804.8C814 799 857 798 878.5 797.5L900 797L900 901L878.5 901C857 901 814 901 771.2 901C728.3 901 685.7 901 642.8 901C600 901 557 901 514.2 901C471.3 901 428.7 901 385.8 901C343 901 300 901 257.2 901C214.3 901 171.7 901 128.8 901C86 901 43 901 21.5 901L0 901Z" fill="#001220"></path></svg>