<svg id="visual" viewBox="0 0 900 900" width="900" height="900" xmlns="http://www.w3.org/2000/svg" xmlns:xlink="http://www.w3.org/1999/xlink" version="1.1"><path d="M0 617L21.5 612.7C43 608.3 86 599.7 128.8 603C171.7 606.3 214.3 621.7 257.2 612.8C300 604 343 571 385.8 567.3C428.7 563.7 471.3 589.3 514.2 599.3C557 609.3 600 603.7 642.8 601.8C685.7 600 728.3 602 771.2 590.3C814 578.7 857 553.3 878.5 540.7L900 528L900 901L878.5 901C857 901 814 901 771.2 901C728.3 901 685.7 901 642.8 901C600 901 557 901 514.2 901C471.3 901 428.7 901 385.8 901C343 901 300 901 257.2 901C214.3 901 171.7 901 128.8 901C86 901 43 901 21.5 901L0 901Z" fill="#ff3957"></path><path d="M0 651L21.5 658C43 665 86 679 128.8 681.7C171.7 684.3 214.3 675.7 257.2 678.2C300 680.7 343 694.3 385.8 687C428.7 679.7 471.3 651.3 514.2 634.2C557 617 600 611 642.8 616.5C685.7 622 728.3 639 771.2 644C814 649 857 642 878.5 638.5L900 635L900 901L878.5 901C857 901 814 901 771.2 901C728.3 901 685.7 901 642.8 901C600 901 557 901 514.2 901C471.3 901 428.7 901 385.8 901C343 901 300 901 257.2 901C214.3 901 171.7 901 128.8 901C86 901 43 901 21.5 901L0 901Z" fill="#bd2a76"></path><path d="M0 763L21.5 756.5C43 750 86 737 128.8 730.5C171.7 724 214.3 724 257.2 713.8C300 703.7 343 683.3 385.8 679.8C428.7 676.3 471.3 689.7 514.2 698.5C557 707.3 600 711.7 642.8 720.8C685.7 730 728.3 744 771.2 739.5C814 735 857 712 878.5 700.5L900 689L900 901L878.5 901C857 901 814 901 771.2 901C728.3 901 685.7 901 642.8 901C600 901 557 901 514.2 901C471.3 901 428.7 901 385.8 901C343 901 300 901 257.2 901C214.3 901 171.7 901 128.8 901C86 901 43 901 21.5 901L0 901Z" fill="#6b3174"></path><path d="M0 805L21.5 796C43 787 86 769 128.8 770C171.7 771 214.3 791 257.2 800.2C300 809.3 343 807.7 385.8 795.2C428.7 782.7 471.3 759.3 514.2 751.8C557 744.3 600 752.7 642.8 764.3C685.7 776 728.3 791 771.2 797.2C814 803.3 857 800.7 878.5 799.3L900 798L900 901L878.5 901C857 901 814 901 771.2 901C728.3 901 685.7 901 642.8 901C600 901 557 901 514.2 901C471.3 901 428.7 901 385.8 901C343 901 300 901 257.2 901C214.3 901 171.7 901 128.8 901C86 901 43 901 21.5 901L0 901Z" fill="#222852"></path><path d="M0 839L21.5 839.2C43 839.3 86 839.7 128.8 838C171.7 836.3 214.3 832.7 257.2 831.3C300 830 343 831 385.8 824.7C428.7 818.3 471.3 804.7 514.2 798.3C557 792 600 793 642.8 793.5C685.7 794 728.3 794 771.2 799.3C814 804.7 857 815.3 878.5 820.7L900 826L900 901L878.5 901C857 901 814 901 771.2 901C728.3 901 685.7 901 642.8 901C600 901 557 901 514.2 901C471.3 901 428.7 901 385.8 901C343 901 300 901 257.2 901C214.3 901 171.7 901 128.8 901C86 901 43 901 21.5 901L0 901Z" fill="#001220"></path></svg>